<mxfile host="app.diagrams.net" agent="Mozilla/5.0 (Macintosh; Intel Mac OS X 10_15_7) AppleWebKit/537.36 (KHTML, like Gecko) Chrome/128.0.0.0 Safari/537.36" version="24.7.16">
  <diagram name="Página-1" id="FcKkQxWBqw7KwTcctkgw">
    <mxGraphModel dx="794" dy="483" grid="1" gridSize="10" guides="1" tooltips="1" connect="1" arrows="1" fold="1" page="1" pageScale="1" pageWidth="827" pageHeight="1169" math="0" shadow="0">
      <root>
        <mxCell id="0" />
        <mxCell id="1" parent="0" />
        <mxCell id="43tG4FjEUaZWZPi5jXeO-3" value="" style="edgeStyle=orthogonalEdgeStyle;rounded=0;orthogonalLoop=1;jettySize=auto;html=1;" edge="1" parent="1" source="43tG4FjEUaZWZPi5jXeO-1" target="43tG4FjEUaZWZPi5jXeO-2">
          <mxGeometry relative="1" as="geometry" />
        </mxCell>
        <mxCell id="43tG4FjEUaZWZPi5jXeO-1" value="Inicio" style="strokeWidth=2;html=1;shape=mxgraph.flowchart.start_2;whiteSpace=wrap;" vertex="1" parent="1">
          <mxGeometry x="360" y="210" width="100" height="100" as="geometry" />
        </mxCell>
        <mxCell id="43tG4FjEUaZWZPi5jXeO-5" value="" style="edgeStyle=orthogonalEdgeStyle;rounded=0;orthogonalLoop=1;jettySize=auto;html=1;" edge="1" parent="1" source="43tG4FjEUaZWZPi5jXeO-2" target="43tG4FjEUaZWZPi5jXeO-4">
          <mxGeometry relative="1" as="geometry" />
        </mxCell>
        <mxCell id="43tG4FjEUaZWZPi5jXeO-2" value="Mostrar mensaje:&amp;nbsp;&lt;div&gt;&quot;Por favor, ingrese el radio del circulo: &quot;&lt;/div&gt;" style="shape=parallelogram;perimeter=parallelogramPerimeter;whiteSpace=wrap;html=1;fixedSize=1;strokeWidth=2;fillColor=#ffe6cc;strokeColor=#d79b00;" vertex="1" parent="1">
          <mxGeometry x="290" y="360" width="240" height="110" as="geometry" />
        </mxCell>
        <mxCell id="43tG4FjEUaZWZPi5jXeO-7" value="" style="edgeStyle=orthogonalEdgeStyle;rounded=0;orthogonalLoop=1;jettySize=auto;html=1;" edge="1" parent="1" source="43tG4FjEUaZWZPi5jXeO-4" target="43tG4FjEUaZWZPi5jXeO-6">
          <mxGeometry relative="1" as="geometry" />
        </mxCell>
        <mxCell id="43tG4FjEUaZWZPi5jXeO-4" value="&lt;div&gt;&amp;nbsp; &amp;nbsp; Definir y asignar a la variable&amp;nbsp;&lt;/div&gt;&lt;div&gt;area el resultado de π * radio^2&lt;/div&gt;" style="whiteSpace=wrap;html=1;strokeWidth=2;fillColor=#dae8fc;strokeColor=#6c8ebf;" vertex="1" parent="1">
          <mxGeometry x="290" y="550" width="240" height="110" as="geometry" />
        </mxCell>
        <mxCell id="43tG4FjEUaZWZPi5jXeO-9" value="" style="edgeStyle=orthogonalEdgeStyle;rounded=0;orthogonalLoop=1;jettySize=auto;html=1;" edge="1" parent="1" source="43tG4FjEUaZWZPi5jXeO-6" target="43tG4FjEUaZWZPi5jXeO-8">
          <mxGeometry relative="1" as="geometry" />
        </mxCell>
        <mxCell id="43tG4FjEUaZWZPi5jXeO-6" value="Mostrar mensaje:&amp;nbsp;&lt;div&gt;&quot;El area del circulo con radio&quot;, radio, &quot;es:&quot;, area&lt;/div&gt;" style="shape=parallelogram;perimeter=parallelogramPerimeter;whiteSpace=wrap;html=1;fixedSize=1;strokeWidth=2;fillColor=#ffe6cc;strokeColor=#d79b00;" vertex="1" parent="1">
          <mxGeometry x="290" y="765" width="240" height="115" as="geometry" />
        </mxCell>
        <mxCell id="43tG4FjEUaZWZPi5jXeO-8" value="Fin" style="ellipse;whiteSpace=wrap;html=1;strokeWidth=2;" vertex="1" parent="1">
          <mxGeometry x="360" y="977.5" width="100" height="92.5" as="geometry" />
        </mxCell>
      </root>
    </mxGraphModel>
  </diagram>
</mxfile>
